<?xml version="1.0" encoding="UTF-8"?>
<svg version="1.1" xmlns="http://www.w3.org/2000/svg" width="1024" height="1024">
<path d="M0 0 C9.47522659 4.3820337 16.84593256 13.65966127 24.13916016 20.95385742 C26.01837639 22.83085469 27.90549623 24.69966889 29.79296875 26.56835938 C30.98746644 27.7599284 32.18149464 28.95196829 33.375 30.14453125 C33.94049561 30.70284134 34.50599121 31.26115143 35.08862305 31.83638 C39 35.77113553 39 35.77113553 39 38 C39.8259561 38.33839684 39.8259561 38.33839684 40.66859818 38.68362999 C43.66924254 40.37787171 45.90132206 42.63182212 48.3024292 45.06192017 C48.82445805 45.58224017 49.3464869 46.10256016 49.8843348 46.63864744 C51.63177923 48.38279846 53.37198085 50.134 55.11230469 51.88525391 C56.36368071 53.13719408 57.61549731 54.38869401 58.86772156 55.63978577 C62.26649751 59.03798734 65.65906695 62.44232501 69.05057049 65.84778261 C72.59575325 69.40545843 76.14659148 72.95748034 79.69683838 76.51010132 C86.41912898 83.23861087 93.13630459 89.97220295 99.85166574 96.70762765 C107.49700444 104.37531241 115.14801538 112.03732648 122.79951239 119.69886518 C138.53933615 135.45960035 154.27200897 151.22745724 170 167 C168.51021996 170.11867569 166.99899788 172.2417159 164.53173828 174.67944336 C163.82405304 175.38374985 163.1163678 176.08805634 162.38723755 176.81370544 C161.62265228 177.56483109 160.85806702 178.31595673 160.0703125 179.08984375 C159.28357147 179.87138321 158.49683044 180.65292267 157.68624878 181.45814514 C155.17052949 183.95605461 152.64823952 186.44718902 150.125 188.9375 C147.60975583 191.42507504 145.09599799 193.91410595 142.58517456 196.40614319 C141.02310838 197.95601181 139.45837632 199.5031994 137.89065552 201.04734802 C133.75433024 205.14528775 133.75433024 205.14528775 129.98779297 209.57641602 C128.21808936 211.73409812 126.51326935 213.33913263 124.39802551 215.13630676 C119.95391498 218.98947601 115.79132085 223.07473107 111.64379883 227.24267578 C110.85086929 228.03545929 110.05793976 228.8282428 109.24098206 229.64505005 C106.64395177 232.24277188 104.050474 234.84400946 101.45703125 237.4453125 C99.64220238 239.26200911 97.82715063 241.07848308 96.0118866 242.89474487 C91.73446578 247.17558232 87.45927561 251.45863553 83.18518418 255.74279678 C78.33523702 260.60392436 73.48245052 265.4622132 68.62941706 270.32025933 C60.32975999 278.62858307 52.03219671 286.93899351 43.73706055 295.25183105 C42.40623082 296.58546735 41.07418059 297.91788749 39.74057961 299.24875259 C38.63924132 300.35684084 37.5469828 301.47409345 36.46765709 302.60363388 C35.34668869 303.77033946 34.1784351 304.89136897 33 306 C32.34 306 31.68 306 31 306 C30.6596875 306.86625 30.6596875 306.86625 30.3125 307.75 C28.65238361 310.59591381 26.60812043 311.99841921 24 314 C21.48184682 316.39531644 19.1919593 318.75231058 17.0625 321.5 C15.11362908 323.86226778 13.04491057 325.62832584 10.66015625 327.53125 C7.44711177 330.37384936 4.7519716 333.71880309 2 337 C-2.89188841 333.97894439 -6.78480168 330.49881289 -10.82698059 326.42698669 C-11.4888535 325.76823376 -12.15072642 325.10948083 -12.83265609 324.43076569 C-15.04140325 322.22997341 -17.24295929 320.02212858 -19.44458008 317.81420898 C-21.02961513 316.23188482 -22.61507517 314.64998627 -24.20092773 313.06848145 C-28.50064753 308.77787397 -32.7940235 304.48097073 -37.08601594 300.18263507 C-41.57621677 295.68737096 -46.07129488 291.19698825 -50.56559753 286.70582581 C-58.59186059 278.68343325 -66.61306989 270.65601137 -74.63230696 262.62659771 C-81.90594144 255.344019 -89.18481663 248.06671286 -96.4675293 240.79321289 C-104.92745044 232.34398863 -113.38401053 223.89142268 -121.83562773 215.43388993 C-126.30872155 210.95767347 -130.78316666 206.48283029 -135.26111794 202.0114727 C-139.46727533 197.81107674 -143.66854038 193.6058489 -147.8660202 189.39678192 C-149.41030004 187.84984956 -150.9562992 186.30463146 -152.50410271 184.76122475 C-154.61002573 182.66073488 -156.70974177 180.55423408 -158.80793762 178.44602966 C-159.7370933 177.52356615 -159.7370933 177.52356615 -160.68501979 176.58246702 C-164.88584944 172.34245169 -164.88584944 172.34245169 -166 169 C-161.47526042 164.47526042 -156.95052083 159.95052083 -152.42578125 155.42578125 C-151.65572754 154.65443848 -150.88567383 153.8830957 -150.09228516 153.08837891 C-148.85771762 151.85611628 -147.61936758 150.62759006 -146.37255859 149.40771484 C-144.26828658 147.34671834 -142.64890014 145.47335021 -141 143 C-140.34 143 -139.68 143 -139 143 C-138.773125 142.443125 -138.54625 141.88625 -138.3125 141.3125 C-136.65176652 138.38644577 -134.38612343 136.32971879 -132 134 C-130.71452167 132.72208886 -129.43028844 131.44292461 -128.14697266 130.1628418 C-127.42917633 129.44827316 -126.71138 128.73370453 -125.97183228 127.9974823 C-122.7124637 124.7515398 -119.45577489 121.50291424 -116.19921875 118.25415039 C-114.48755385 116.54751789 -112.77499299 114.8417835 -111.06152344 113.13696289 C-108.57246462 110.66011473 -106.08672129 108.17997928 -103.6015625 105.69921875 C-102.84404694 104.94686447 -102.08653137 104.19451019 -101.30606079 103.4193573 C-97.1913102 99.30503592 -93.24575704 95.10345783 -89.4546814 90.68830872 C-87.72499685 88.6808303 -85.98196825 86.76174955 -84 85 C-83.34 85 -82.68 85 -82 85 C-81.75635208 84.431035 -81.51270416 83.86207001 -81.26167297 83.27586365 C-79.76657839 80.57894338 -78.00076608 78.76096775 -75.81323242 76.58618164 C-74.94860886 75.72170914 -74.08398529 74.85723663 -73.19316101 73.96656799 C-72.25672256 73.04045212 -71.32028412 72.11433624 -70.35546875 71.16015625 C-69.38337695 70.1917995 -68.41172941 69.22299661 -67.44050598 68.25376892 C-64.88386148 65.70474908 -62.32127579 63.1617848 -59.75738525 60.62005615 C-57.16215987 58.04521239 -54.57250497 55.46478025 -51.98242188 52.88476562 C-47.41214348 48.33360525 -42.83698363 43.78739689 -38.25822449 39.24476624 C-37.51301041 38.50399338 -36.76779633 37.76322052 -36 37 C-35.12189163 36.13285873 -34.24378326 35.26571747 -33.33906555 34.37229919 C-30.9722272 32.05362036 -30.9722272 32.05362036 -29 29.5 C-26.83086072 26.7885759 -24.46967927 24.44116155 -22 22 C-21.14623779 21.14623779 -20.29247559 20.29247559 -19.4128418 19.4128418 C-12.94189453 12.94189453 -6.47094727 6.47094727 0 0 Z " fill="#008CFE" transform="translate(511,133)"/>
<path d="M0 0 C2.91577102 1.41168758 5.28179821 2.89042582 7.75 5 C8.36359375 5.515625 8.9771875 6.03125 9.609375 6.5625 C11 8 11 8 11 10 C11.88219884 10.39463959 11.88219884 10.39463959 12.78221989 10.7972517 C15.1044938 12.05666916 16.62394643 13.37752112 18.48448181 15.24397278 C19.15588699 15.91262863 19.82729218 16.58128448 20.51904297 17.27020264 C21.6077771 18.3697226 21.6077771 18.3697226 22.71850586 19.49145508 C23.87776329 20.65027443 23.87776329 20.65027443 25.06044006 21.83250427 C27.61667649 24.390135 30.16575105 26.95478219 32.71484375 29.51953125 C34.4903315 31.29875054 36.26626238 33.07752772 38.0426178 34.85588074 C42.24410189 39.06422422 46.44111202 43.27699517 50.63597447 47.49193639 C55.85892869 52.73935692 61.08870728 57.97995922 66.31835938 63.22070312 C73.99783614 70.91777082 81.6738208 78.61830071 89.34542847 86.32321167 C92.17264616 89.1625493 94.99996052 92.00174342 97.83424377 94.83403015 C99.39532497 96.39526532 100.94977985 97.96313613 102.5 99.53515625 C103.7375 100.78619141 103.7375 100.78619141 105 102.0625 C106.2375 103.31740234 106.2375 103.31740234 107.5 104.59765625 C109.89699707 106.90102062 112.38703102 108.94881935 115 111 C117.64407254 113.51186892 120.02560922 116.03183849 122.3125 118.875 C124.98468985 122.18097846 128.14831614 124.79455151 131.42578125 127.484375 C131.94527344 127.98453125 132.46476562 128.4846875 133 129 C133 129.66 133 130.32 133 131 C133.58815491 131.26283783 134.17630981 131.52567566 134.7822876 131.79647827 C137.10712462 133.05813504 138.62489754 134.3835506 140.48339844 136.25634766 C141.47397247 137.24714828 141.47397247 137.24714828 142.48455811 138.25796509 C143.18574768 138.96947723 143.88693726 139.68098938 144.609375 140.4140625 C145.69958954 141.50852188 145.69958954 141.50852188 146.81182861 142.62509155 C149.12929198 144.9537388 151.4396995 147.28924826 153.75 149.625 C155.32115444 151.20618653 156.89276371 152.78692125 158.46484375 154.3671875 C162.31518653 158.2395669 166.15976117 162.11760171 170 166 C166.38688473 173.46420279 160.31850476 178.70595534 154.125 184.0625 C151.6950337 186.27805751 149.66800109 188.67012821 147.58981037 191.20882225 C146.03190201 192.96405724 144.42620082 194.40695289 142.62553406 195.90884399 C136.4559398 201.24589639 130.7945644 207.10773756 125.05395508 212.89599609 C123.76066115 214.19613046 122.4671106 215.49600961 121.17332458 216.7956543 C118.40129372 219.58095189 115.63069998 222.36766832 112.86112404 225.15540695 C108.48193467 229.56254797 104.09723221 233.96417577 99.71134949 238.36465454 C98.20714738 239.8739994 96.70295222 241.38335118 95.19876385 242.89270973 C94.44594202 243.64811712 93.6931202 244.4035245 92.91748559 245.18182302 C82.71646394 255.41885475 72.52027384 265.66066341 62.33422852 275.91259766 C55.44937875 282.84189344 48.55747315 289.76408623 41.65742987 296.67825377 C38.00950291 300.33425981 34.36539837 303.99390714 30.72999001 307.66236496 C27.31655686 311.10678158 23.89401401 314.54187039 20.4641819 317.96995544 C19.20656421 319.23027469 17.95239017 320.49404089 16.70191574 321.76144791 C14.99658596 323.48886641 13.27940413 325.20356482 11.55867004 326.9156189 C11.06508603 327.42153639 10.57150202 327.92745389 10.06296092 328.44870222 C7.191503 331.27477144 5.08591823 332.81039712 1 333 C-1.02470398 331.77655029 -1.02470398 331.77655029 -3.1550293 329.71386719 C-4.03001068 328.87609741 -4.90499207 328.03832764 -5.80648804 327.1751709 C-6.87218989 326.11798675 -7.93657395 325.05947336 -9 324 C-10.32793172 322.69372287 -11.65603907 321.38762426 -12.98428345 320.08166504 C-17.85506947 315.27274126 -22.68707275 310.42550834 -27.51953125 305.578125 C-29.30908091 303.78670664 -31.09885416 301.99551162 -32.88883972 300.20452881 C-37.09890628 295.99105187 -41.30674488 291.77535877 -45.51347131 287.55854774 C-50.28848708 282.77233274 -55.06635861 277.98897286 -59.84447253 273.20585108 C-68.01473074 265.0269358 -76.18289747 256.84593692 -84.34861755 248.66249084 C-85.66006732 247.348229 -86.97214541 246.03459367 -88.2850132 244.72174835 C-89.35827404 243.64425604 -90.42721407 242.56242277 -91.48962975 241.47423553 C-93.58143199 239.33885439 -95.49289376 237.67140416 -98 236 C-98 235.34 -98 234.68 -98 234 C-98.66 234 -99.32 234 -100 234 C-100.556875 233.29875 -101.11375 232.5975 -101.6875 231.875 C-103.53518944 229.57787259 -105.0747198 228.01886721 -107.3125 226.1875 C-110.70621607 223.36788151 -113.51222646 220.24195936 -116.37109375 216.890625 C-119.11109449 213.71038433 -121.91877788 210.78899993 -125.3125 208.3125 C-125.869375 207.879375 -126.42625 207.44625 -127 207 C-127 206.34 -127 205.68 -127 205 C-127.99 204.67 -128.98 204.34 -130 204 C-130 203.34 -130 202.68 -130 202 C-130.99 201.67 -131.98 201.34 -133 201 C-134.68359375 199.2578125 -134.68359375 199.2578125 -136.4375 197.125 C-138.27778615 194.89360158 -139.8860263 193.0837276 -142.22265625 191.3671875 C-142.80917969 190.91601562 -143.39570313 190.46484375 -144 190 C-144 189.34 -144 188.68 -144 188 C-144.66 188 -145.32 188 -146 188 C-146 187.34 -146 186.68 -146 186 C-146.61875 185.7525 -147.2375 185.505 -147.875 185.25 C-150.35068687 183.79371361 -150.95125002 182.62187494 -152 180 C-152.66 180 -153.32 180 -154 180 C-154 179.34 -154 178.68 -154 178 C-154.66 178 -155.32 178 -156 178 C-157.5859375 176.390625 -157.5859375 176.390625 -159.375 174.25 C-161.81617866 171.3756268 -164.27649992 168.61456008 -167 166 C-166.50369111 165.57448347 -166.00738222 165.14896694 -165.49603367 164.71055597 C-160.82524357 160.67042538 -156.35692825 156.49849106 -152.00170898 152.1219635 C-151.01752865 151.1390648 -151.01752865 151.1390648 -150.01346588 150.13630956 C-147.83863162 147.96310861 -145.66736592 145.78637857 -143.49609375 143.60961914 C-141.92864613 142.04188916 -140.3609777 140.47437991 -138.79310608 138.90707397 C-134.55387004 134.66812399 -130.31771705 130.42610521 -126.0821228 126.18351674 C-121.64899196 121.74412048 -117.21301546 117.30756954 -112.77734375 112.87071228 C-105.33806745 105.42868437 -97.90053735 97.98491465 -90.46435547 90.53979492 C-82.80830731 82.87455428 -75.15119954 75.21037467 -67.49267578 67.54760742 C-67.01984527 67.07451419 -66.54701476 66.60142096 -66.05985606 66.11399157 C-63.68757105 63.74040144 -61.31526533 61.36683202 -58.9429493 58.9932729 C-39.29213202 39.33201249 -19.64488669 19.66718593 0 0 Z " fill="#008AFE" transform="translate(303,341)"/>
<path d="M0 0 C3.18334504 1.25565575 5.23798626 3.48457656 7.59731674 5.87939358 C8.39261067 6.6687259 8.39261067 6.6687259 9.20397115 7.47400433 C10.98147839 9.24187508 12.74804853 11.02028525 14.51485825 12.79884243 C15.78573877 14.06729549 17.05726453 15.33510237 18.32938766 16.60230923 C21.78434406 20.04784831 25.2298009 23.50274532 28.67338848 26.95964217 C32.27342484 30.57097791 35.88115288 34.17461483 39.48781967 37.77932644 C45.54225617 43.83287965 51.59067837 49.8923912 57.63546371 55.95558071 C64.63307564 62.97437506 71.63949171 69.98428336 78.65081954 76.98937458 C85.38633525 83.71920475 92.11618019 90.45467673 98.84323502 97.1929636 C101.71071638 100.06510024 104.58008626 102.9353307 107.45094681 105.80408955 C110.82737951 109.17864487 114.19880368 112.55812481 117.56634712 115.94155025 C118.80627356 117.18573525 120.04792133 118.4282074 121.29136467 119.6688776 C122.98175042 121.35606361 124.66590732 123.0492242 126.34853745 124.74413967 C126.8477413 125.2395642 127.34694515 125.73498873 127.86127639 126.24542612 C131.21895981 129.64692928 131.21895981 129.64692928 131.21895981 131.87525845 C131.87895981 131.87525845 132.53895981 131.87525845 133.21895981 131.87525845 C134.40607147 132.99453515 135.58474954 134.12458901 136.71114731 135.30494595 C137.81817907 136.45786504 138.95265238 137.58459608 140.10177231 138.69557095 C140.73856918 139.31174282 141.37536606 139.9279147 142.03145981 140.56275845 C142.63603012 141.14412563 143.24060043 141.72549282 143.86349106 142.3244772 C145.21895981 143.87525845 145.21895981 143.87525845 145.21895981 145.87525845 C145.87895981 145.87525845 146.53895981 145.87525845 147.21895981 145.87525845 C151.98640167 150.17758403 151.98640167 150.17758403 153.21895981 153.87525845 C153.87895981 153.87525845 154.53895981 153.87525845 155.21895981 153.87525845 C156.80489731 155.48463345 156.80489731 155.48463345 158.59395981 157.62525845 C161.03513847 160.49963165 163.49545973 163.26069837 166.21895981 165.87525845 C162.99198821 171.25354445 159.00017149 175.79777489 154.21895981 179.87525845 C153.55895981 179.87525845 152.89895981 179.87525845 152.21895981 179.87525845 C151.97145981 180.45275845 151.72395981 181.03025845 151.46895981 181.62525845 C150.03595992 184.20465824 148.43471304 185.93647436 146.21895981 187.87525845 C145.55895981 187.87525845 144.89895981 187.87525845 144.21895981 187.87525845 C144.21895981 188.53525845 144.21895981 189.19525845 144.21895981 189.87525845 C143.55895981 189.87525845 142.89895981 189.87525845 142.21895981 189.87525845 C141.99208481 190.43213345 141.76520981 190.98900845 141.53145981 191.56275845 C139.84518714 194.5338103 137.68860581 196.5204797 135.21895981 198.87525845 C134.33208481 199.80338345 133.44520981 200.73150845 132.53145981 201.68775845 C130.21895981 203.87525845 130.21895981 203.87525845 128.21895981 203.87525845 C127.95728012 204.47467251 127.69560043 205.07408657 127.42599106 205.6916647 C126.14675793 208.00587608 124.95645538 209.1718529 122.90645981 210.81275845 C117.89837453 214.9516719 113.62868047 219.47378354 109.55099106 224.5197897 C109.11142075 224.96709438 108.67185043 225.41439907 108.21895981 225.87525845 C107.55895981 225.87525845 106.89895981 225.87525845 106.21895981 225.87525845 C106.21895981 226.53525845 106.21895981 227.19525845 106.21895981 227.87525845 C104.59921422 229.58756093 102.92306521 231.24689106 101.21895981 232.87525845 C100.04333481 234.08182095 100.04333481 234.08182095 98.84395981 235.31275845 C96.88527015 237.22481264 94.9464659 238.95131368 92.84395981 240.68775845 C89.56434302 243.45737003 86.83663817 246.5136467 84.05489731 249.77369595 C80.96923055 253.3057996 77.77006532 256.80579713 74.21895981 259.87525845 C73.55895981 259.87525845 72.89895981 259.87525845 72.21895981 259.87525845 C72.01270981 260.43213345 71.80645981 260.98900845 71.59395981 261.56275845 C70.04845464 264.16201713 68.14859097 265.66303816 65.79708481 267.52369595 C63.27214621 269.68614336 61.31033801 272.30125451 59.21895981 274.87525845 C57.56353503 276.55309168 55.89533025 278.21835239 54.21895981 279.87525845 C53.32177231 280.78404751 52.42458481 281.69283657 51.50020981 282.6291647 C50.58239731 283.55600063 49.66458481 284.48283657 48.71895981 285.43775845 C47.80114731 286.36717251 46.88333481 287.29658657 45.93770981 288.2541647 C43.21895981 290.87525845 43.21895981 290.87525845 40.57442856 292.9807272 C37.79520256 295.21609139 35.76095028 297.7090646 33.55099106 300.48463345 C33.11142075 300.9435397 32.67185043 301.40244595 32.21895981 301.87525845 C31.55895981 301.87525845 30.89895981 301.87525845 30.21895981 301.87525845 C29.87864731 302.71057095 29.87864731 302.71057095 29.53145981 303.56275845 C27.84345945 306.53685432 25.75219464 308.5953471 23.21895981 310.87525845 C22.55895981 310.87525845 21.89895981 310.87525845 21.21895981 310.87525845 C21.21895981 311.53525845 21.21895981 312.19525845 21.21895981 312.87525845 C20.55895981 312.87525845 19.89895981 312.87525845 19.21895981 312.87525845 C19.21895981 313.53525845 19.21895981 314.19525845 19.21895981 314.87525845 C16.73276877 317.58081928 14.13907364 319.93984726 11.28145981 322.25025845 C8.33233459 324.64452247 5.99057905 327.37112545 3.61349106 330.3244772 C2.21895981 331.87525845 2.21895981 331.87525845 -0.78104019 333.87525845 C-3.46854019 333.50025845 -3.46854019 333.50025845 -5.78104019 332.87525845 C-6.11104019 331.88525845 -6.44104019 330.89525845 -6.78104019 329.87525845 C-8.10511688 329.19039119 -9.4401326 328.52655642 -10.78104019 327.87525845 C-13.03104019 325.87525845 -13.03104019 325.87525845 -14.78104019 323.87525845 C-14.78104019 323.21525845 -14.78104019 322.55525845 -14.78104019 321.87525845 C-15.57768082 321.56588345 -15.57768082 321.56588345 -16.39041519 321.25025845 C-19.78877455 319.29564653 -22.29159947 316.65402128 -25.03104019 313.87525845 C-25.58533707 313.32869595 -26.13963394 312.78213345 -26.71072769 312.21900845 C-30.78104019 308.12864515 -30.78104019 308.12864515 -30.78104019 305.87525845 C-31.37634537 305.61043667 -31.97165054 305.34561489 -32.58499527 305.07276821 C-34.85725689 303.83369726 -36.18810193 302.6229613 -37.91775894 300.7151022 C-38.49123062 300.09014858 -39.0647023 299.46519497 -39.65555191 298.82130337 C-40.25383804 298.15848354 -40.85212418 297.49566372 -41.46854019 296.81275845 C-42.7132113 295.45208073 -43.9593054 294.09270331 -45.20682144 292.73463345 C-45.81348648 292.07398891 -46.42015152 291.41334438 -47.04520035 290.73268032 C-50.02301505 287.54629294 -53.14995857 284.52310908 -56.30447769 281.5119772 C-57.78104019 279.87525845 -57.78104019 279.87525845 -57.78104019 277.87525845 C-58.77104019 277.54525845 -59.76104019 277.21525845 -60.78104019 276.87525845 C-62.18558121 275.44508266 -62.18558121 275.44508266 -63.72244644 273.55494595 C-66.81701472 269.90594436 -70.09077435 266.49034463 -73.49588394 263.13307095 C-74.25247803 262.38498165 -74.25247803 262.38498165 -75.02435684 261.62177944 C-77.12509303 259.54809207 -79.22999353 257.47872059 -81.33890152 255.41334438 C-82.8955367 253.88672175 -84.44604483 252.35408798 -85.99588394 250.82057095 C-86.91490494 249.91838833 -87.83392593 249.01620571 -88.78079605 248.08668423 C-90.78104019 245.87525845 -90.78104019 245.87525845 -90.78104019 243.87525845 C-91.35886749 243.63513027 -91.93669479 243.3950021 -92.53203201 243.14759731 C-95.23062375 241.62091405 -96.75167226 239.87497221 -98.76517105 237.51783657 C-103.74134085 231.8526723 -109.00575525 226.54890367 -114.36279869 221.24890041 C-116.0760268 219.55335201 -117.78543886 217.85403608 -119.49391556 216.15370083 C-124.34351946 211.32832657 -129.19906768 206.50896412 -134.05862808 201.69361782 C-137.04929375 198.72964768 -140.03513894 195.76089279 -143.01802254 192.78909206 C-144.15209595 191.6612334 -145.28806413 190.53527668 -146.42593956 189.41125393 C-148.00529417 187.85099963 -149.57849911 186.28478842 -151.15042496 184.71705532 C-152.04705353 183.82788418 -152.9436821 182.93871304 -153.86748123 182.02259731 C-155.78104019 179.87525845 -155.78104019 179.87525845 -155.78104019 177.87525845 C-156.70916519 177.50400845 -156.70916519 177.50400845 -157.65604019 177.12525845 C-160.13172706 175.66897205 -160.73229022 174.49713338 -161.78104019 171.87525845 C-162.44104019 171.87525845 -163.10104019 171.87525845 -163.78104019 171.87525845 C-163.78104019 171.21525845 -163.78104019 170.55525845 -163.78104019 169.87525845 C-164.44104019 169.87525845 -165.10104019 169.87525845 -165.78104019 169.87525845 C-167.40604019 167.87525845 -167.40604019 167.87525845 -168.78104019 165.87525845 C-168.34840961 165.51349829 -167.91577902 165.15173813 -167.47003841 164.77901554 C-160.73915297 159.0290636 -154.53831071 152.76604743 -148.29397964 146.50172329 C-147.04991163 145.25737274 -145.80562246 144.01324325 -144.56113052 142.76931667 C-141.20169546 139.41016718 -137.84534174 136.0479544 -134.48955178 132.68516397 C-130.9689854 129.15831724 -127.44555906 125.63432999 -123.92244339 122.11003017 C-117.25428894 115.43877364 -110.58868554 108.7649743 -103.92400759 102.09024489 C-96.35343029 94.508496 -88.78002034 86.92957936 -81.20636427 79.35090613 C-68.25999575 66.39586317 -55.31573369 53.43871867 -42.37385941 40.47918606 C-41.82718855 39.9317756 -41.28051769 39.38436515 -40.71728104 38.8203665 C-39.26394592 37.36504888 -37.81064112 35.90970096 -36.35733891 34.45435047 C-33.83280838 31.92708277 -31.30717264 29.40092485 -28.78104019 26.87525845 C-28.17260269 26.26682095 -27.56416519 25.65838345 -26.93729019 25.03150845 C-16.78104019 14.87525845 -16.78104019 14.87525845 -14.34354019 12.50025845 C-12.35775128 10.46603566 -10.5378202 8.42608077 -8.71854019 6.25025845 C-3.19177573 -0.22354749 -3.19177573 -0.22354749 0 0 Z " fill="#0088FE" transform="translate(720.7810401916504,341.12474155426025)"/>
<path d="M0 0 C0 0.66 0 1.32 0 2 C0.556875 2.226875 1.11375 2.45375 1.6875 2.6875 C4.65348108 4.37089467 6.61501819 6.55979429 9 9 C9.8971875 9.8971875 10.794375 10.794375 11.71875 11.71875 C20 20 20 20 22.60546875 22.61328125 C24.06624125 24.06928777 25.53553502 25.5168897 27.01953125 26.94921875 C27.90705078 27.80966797 27.90705078 27.80966797 28.8125 28.6875 C29.41707031 29.26886719 30.02164063 29.85023438 30.64453125 30.44921875 C32 32 32 32 32 34 C32.556875 34.226875 33.11375 34.45375 33.6875 34.6875 C36.61604366 36.3496464 38.66554966 38.61309977 41 41 C42.4154197 42.42023486 43.83228259 43.83903203 45.25012207 45.2568512 C46.96427918 46.9740448 48.67843082 48.69124387 50.39257812 50.40844727 C59.9572032 59.9896057 69.5245447 69.56804793 79.09328461 79.14509678 C84.88174473 84.9387196 90.6692562 90.73328433 96.45458984 96.5300293 C101.51341916 101.59883151 106.57400915 106.66586815 111.63671255 111.73080105 C114.31249162 114.40788135 116.98738949 117.08582874 119.66017151 119.76590157 C122.17294237 122.28547314 124.68806467 124.80267338 127.20498848 127.31809616 C128.5642415 128.67775403 129.92100971 130.03989457 131.2776947 131.40211487 C132.5014254 132.62378357 132.5014254 132.62378357 133.74987793 133.87013245 C134.45408623 134.57526254 135.15829453 135.28039263 135.88384247 136.0068903 C138.15615758 138.14707751 140.55473301 140.06184797 143 142 C143.99177824 143.09562936 144.95116076 144.22150581 145.875 145.375 C148.34126658 148.31129497 150.96261994 150.91049739 153.8203125 153.45703125 C154.50496582 154.07078613 155.18961914 154.68454102 155.89501953 155.31689453 C157.28749762 156.55432983 158.69207067 157.77829985 160.10888672 158.98779297 C160.7535791 159.56287598 161.39827148 160.13795898 162.0625 160.73046875 C162.65160156 161.23989014 163.24070312 161.74931152 163.84765625 162.27416992 C165 164 165 164 165.03417969 166.3293457 C163.61121181 170.00400236 161.1756016 172.31996811 158.390625 175 C157.82680115 175.55816406 157.26297729 176.11632812 156.68206787 176.69140625 C154.88057458 178.47057289 153.06570291 180.23534868 151.25 182 C150.04335362 183.18656799 148.83761418 184.37405901 147.6328125 185.5625 C144.91158145 188.24389627 142.18274534 190.91715726 139.44152832 193.578125 C138.01555086 194.98466115 136.62799159 196.42980275 135.24121094 197.875 C133 200 133 200 131 200 C131 200.66 131 201.32 131 202 C128.625 204.625 128.625 204.625 126 207 C125.34 207 124.68 207 124 207 C123.67 207.99 123.34 208.98 123 210 C121.5917659 211.17352842 120.17929029 212.34247587 118.7421875 213.48046875 C116.78964967 215.18346699 115.17454674 217.02403485 113.5 219 C110.59598682 222.41348918 107.44628398 225.12809668 104 228 C102.24456935 229.91766239 100.56078226 231.88758756 98.87109375 233.86328125 C95.77023597 237.40434431 92.56389023 240.91948799 89 244 C88.34 244 87.68 244 87 244 C86.64421875 244.84256348 86.64421875 244.84256348 86.28125 245.70214844 C84.70680643 248.52582658 82.78315455 250.47614842 80.5 252.765625 C79.613125 253.65507813 78.72625 254.54453125 77.8125 255.4609375 C76.884375 256.38132812 75.95625 257.30171875 75 258.25 C74.071875 259.18585938 73.14375 260.12171875 72.1875 261.0859375 C71.300625 261.97023438 70.41375 262.85453125 69.5 263.765625 C68.6853125 264.57805664 67.870625 265.39048828 67.03125 266.22753906 C65 268 65 268 63 268 C62.64421875 268.84256348 62.64421875 268.84256348 62.28125 269.70214844 C60.70680643 272.52582658 58.78315455 274.47614842 56.5 276.765625 C55.1696875 278.09980469 55.1696875 278.09980469 53.8125 279.4609375 C52.884375 280.38132812 51.95625 281.30171875 51 282.25 C50.071875 283.18585938 49.14375 284.12171875 48.1875 285.0859375 C47.300625 285.97023438 46.41375 286.85453125 45.5 287.765625 C44.6853125 288.57805664 43.870625 289.39048828 43.03125 290.22753906 C41 292 41 292 39 292 C38.77634766 292.54817383 38.55269531 293.09634766 38.32226562 293.66113281 C36.60286971 296.70245719 34.30376001 298.98233621 31.84375 301.421875 C31.34081421 301.92672424 30.83787842 302.43157349 30.31970215 302.95172119 C29.25970014 304.01307997 28.19718512 305.07193419 27.13232422 306.12841797 C25.49859954 307.75139124 23.87586706 309.38481068 22.25390625 311.01953125 C21.22199524 312.05012146 20.18946441 313.08009152 19.15625 314.109375 C18.66974976 314.59992371 18.18324951 315.09047241 17.68200684 315.59588623 C14.22994349 319 14.22994349 319 12 319 C11.6596875 319.8353125 11.6596875 319.8353125 11.3125 320.6875 C9.61916943 323.67098719 7.50846429 325.66654484 5 328 C4.175 328.78375 3.35 329.5675 2.5 330.375 C0 332 0 332 -2.30078125 331.9765625 C-6.08531955 330.60733736 -8.15562572 327.99002295 -10.6875 325 C-13.91180898 320.97842587 -13.91180898 320.97842587 -18 318 C-18 317.34 -18 316.68 -18 316 C-18.53915039 315.78537109 -19.07830078 315.57074219 -19.63378906 315.34960938 C-22.85069832 313.51478949 -25.27139255 311.01414382 -27.859375 308.40625 C-28.40861633 307.85892212 -28.95785767 307.31159424 -29.52374268 306.74768066 C-30.67925859 305.5935222 -31.83226685 304.43684833 -32.98291016 303.27783203 C-34.750735 301.49926054 -36.5290213 299.73165237 -38.30859375 297.96484375 C-39.43032971 296.84178692 -40.55144551 295.71811024 -41.671875 294.59375 C-42.20617126 294.0635022 -42.74046753 293.53325439 -43.29095459 292.98693848 C-47 289.22993854 -47 289.22993854 -47 287 C-47.53703552 286.78762695 -48.07407104 286.57525391 -48.62738037 286.35644531 C-51.88779692 284.49243951 -54.33682627 281.94140358 -56.96191406 279.296875 C-57.5477124 278.7145813 -58.13351074 278.1322876 -58.73706055 277.53234863 C-60.66830457 275.6098942 -62.59215663 273.68023189 -64.515625 271.75 C-65.85483021 270.41214187 -67.19433221 269.07458076 -68.53411865 267.73730469 C-71.33818591 264.93618463 -74.13860664 262.13148185 -76.93652344 259.32421875 C-80.53019671 255.71912923 -84.13280251 252.12312101 -87.73816299 248.52972412 C-90.50404024 245.77105754 -93.26515639 243.00766543 -96.02483368 240.24279785 C-97.35189581 238.91439817 -98.68045453 237.58749189 -100.01050568 236.26208496 C-101.8637632 234.41388198 -103.71052924 232.55943234 -105.55566406 230.703125 C-106.11042419 230.15241333 -106.66518433 229.60170166 -107.23675537 229.03430176 C-111 225.22853116 -111 225.22853116 -111 223 C-111.5499614 222.77371918 -112.09992279 222.54743835 -112.66654968 222.31430054 C-115.70952587 220.60036422 -117.85045838 218.42768335 -120.33520508 215.97119141 C-120.85433472 215.46038528 -121.37346436 214.94957916 -121.9083252 214.42329407 C-123.61752061 212.73813824 -125.31901145 211.04546994 -127.01953125 209.3515625 C-128.20440677 208.17565354 -129.38935964 206.99982252 -130.5743866 205.82406616 C-133.05356468 203.36136109 -135.52832984 200.89431075 -138.00073242 198.42480469 C-141.1746513 195.25628675 -144.36443304 192.10426338 -147.55835438 188.9559269 C-150.00908584 186.53487469 -152.44854951 184.10270907 -154.88498497 181.66727829 C-156.05672878 180.49975017 -157.23260864 179.33635819 -158.41260719 178.17717361 C-160.05767445 176.55884779 -161.68632343 174.92559876 -163.31176758 173.28759766 C-164.24346268 172.36097321 -165.17515778 171.43434875 -166.13508606 170.47964478 C-168 168 -168 168 -167.97567749 165.89450073 C-163.94965117 158.07705091 -155.89707495 151.73652712 -149.76171875 145.59375 C-148.78995294 144.61876366 -147.81825931 143.64370537 -146.84663391 142.6685791 C-144.82716736 140.643174 -142.80569528 138.61979565 -140.78295898 136.59765625 C-138.18751183 134.00231172 -135.59907128 131.40009434 -133.01224041 128.79616547 C-131.01599171 126.78883684 -129.01525386 124.78603049 -127.01319313 122.78450012 C-126.05586961 121.82599523 -125.10017026 120.86586535 -124.14612389 119.90409851 C-122.82048905 118.56872325 -121.48793041 117.24023189 -120.1550293 115.91210938 C-119.39892868 115.15458374 -118.64282806 114.39705811 -117.86381531 113.61657715 C-116 112 -116 112 -114 112 C-113.76152344 111.4225 -113.52304687 110.845 -113.27734375 110.25 C-111.73926845 107.54072974 -109.94284339 106.00120824 -107.5625 104 C-105.1981654 102.00570129 -103.178648 100.24212059 -101.33984375 97.75 C-100.89769531 97.1725 -100.45554687 96.595 -100 96 C-99.34 96 -98.68 96 -98 96 C-97.01 94.02 -97.01 94.02 -96 92 C-95.34 92 -94.68 92 -94 92 C-93.773125 91.443125 -93.54625 90.88625 -93.3125 90.3125 C-90.92374836 86.1037471 -87.24077001 83.18479983 -83.5625 80.125 C-80.50392047 77.54411619 -77.96447365 74.74777364 -75.41015625 71.67578125 C-70.10151188 65.36717063 -70.10151188 65.36717063 -66 64 C-65.67 63.01 -65.34 62.02 -65 61 C-63.44140625 59.5 -63.44140625 59.5 -61.5625 58 C-59.11225368 56.03571068 -57.78619422 54.67929132 -56 52 C-55.34 52 -54.68 52 -54 52 C-53.773125 51.4225 -53.54625 50.845 -53.3125 50.25 C-51.6591307 47.41565264 -49.57036056 46.03237811 -47 44 C-45.78940668 42.53454493 -44.57966497 41.06815131 -43.39453125 39.58203125 C-41.33615332 37.24689662 -38.97117154 35.34265026 -36.55078125 33.39453125 C-34.7459798 31.88740659 -34.7459798 31.88740659 -33 29 C-32.34 29 -31.68 29 -31 29 C-30.731875 28.360625 -30.46375 27.72125 -30.1875 27.0625 C-29 25 -29 25 -26 24 C-24.79117904 21.99983534 -24.79117904 21.99983534 -24 20 C-23.34 20 -22.68 20 -22 20 C-21.67 19.01 -21.34 18.02 -21 17 C-19.5479183 15.7789313 -18.09178034 14.56197656 -16.60546875 13.3828125 C-14.74347839 11.85658828 -14.74347839 11.85658828 -12.5625 9.0625 C-4.97959184 0 -4.97959184 0 0 0 Z " fill="#008AFE" transform="translate(514,549)"/>
<path d="M0 0 C0 0.99 0 1.98 0 3 C-0.66 2.67 -1.32 2.34 -2 2 C-1.34 1.34 -0.68 0.68 0 0 Z M-3 3 C-2.34 3.66 -1.68 4.32 -1 5 C-1.66 5 -2.32 5 -3 5 C-3.33 5.99 -3.66 6.98 -4 8 C-5.6396721 9.36639342 -7.31110128 10.6949419 -9 12 C-11.97138836 14.82989367 -14.63740327 17.64262569 -17 21 C-17.66 20.67 -18.32 20.34 -19 20 C-13.94647258 14.03651266 -8.58288259 8.46894621 -3 3 Z " fill="#019DFC" transform="translate(395,251)"/>
<path d="M0 0 C0.33 0.66 0.66 1.32 1 2 C0.34 1.67 -0.32 1.34 -1 1 C-0.67 0.67 -0.34 0.34 0 0 Z M-2 2 C-1.67 2.99 -1.34 3.98 -1 5 C-1.66 5 -2.32 5 -3 5 C-3.2475 5.5775 -3.495 6.155 -3.75 6.75 C-5.16683317 9.3002997 -6.87627537 11.01785701 -9 13 C-9.66 12.67 -10.32 12.34 -11 12 C-9.8758824 10.70756532 -8.75067408 9.41607925 -7.625 8.125 C-6.99851562 7.40570313 -6.37203125 6.68640625 -5.7265625 5.9453125 C-4.52573166 4.5923402 -3.2791655 3.2791655 -2 2 Z " fill="#029DFC" transform="translate(427,218)"/>
<path d="M0 0 C0.66 0 1.32 0 2 0 C0.56438314 3.18706942 -1.20266329 5.62169105 -3.5 8.25 C-4.1084375 8.95640625 -4.716875 9.6628125 -5.34375 10.390625 C-7 12 -7 12 -9 12 C-7.43930994 8.16921531 -4.93185886 5.85856238 -2 3 C-1.34 2.01 -0.68 1.02 0 0 Z " fill="#019FFC" transform="translate(370,276)"/>
<path d="M0 0 C0 4.35251187 -2.06165511 5.92809398 -5 9 C-7.171875 9.6796875 -7.171875 9.6796875 -9 10 C-8.06409496 8.8944811 -7.12620142 7.79064547 -6.1875 6.6875 C-5.66542969 6.07261719 -5.14335937 5.45773438 -4.60546875 4.82421875 C-3.12827531 3.14575321 -1.59960869 1.56117966 0 0 Z " fill="#039DFC" transform="translate(447,198)"/>
<path d="M0 0 C0.66 0.66 1.32 1.32 2 2 C1.01 2 0.02 2 -1 2 C-0.67 1.34 -0.34 0.68 0 0 Z M-3 3 C-2.67 3.99 -2.34 4.98 -2 6 C-2.99 6 -3.98 6 -5 6 C-4.34 5.01 -3.68 4.02 -3 3 Z M-7 7 C-6.67 7.99 -6.34 8.98 -6 10 C-6.66 10 -7.32 10 -8 10 C-8.33 10.66 -8.66 11.32 -9 12 C-9 9 -9 9 -7 7 Z " fill="#0299FE" transform="translate(374,685)"/>
<path d="M0 0 C4.13639336 1.59092052 7.23213248 4.60474918 10 8 C10 8.66 10 9.32 10 10 C9.01 9.67 8.02 9.34 7 9 C7 8.34 7 7.68 7 7 C6.01 6.67 5.02 6.34 4 6 C2.60287726 4.04402816 1.26220093 2.04563599 0 0 Z " fill="#0499FD" transform="translate(166,536)"/>
<path d="M0 0 C3.36591866 1.44253657 5.51047079 3.33264727 8 6 C7.67 6.66 7.34 7.32 7 8 C6.443125 7.360625 5.88625 6.72125 5.3125 6.0625 C2.77933439 3.80319013 1.31658576 3.36850953 -2 3 C-1.34 2.01 -0.68 1.02 0 0 Z " fill="#0696F9" transform="translate(511,133)"/>
<path d="M0 0 C0.33 0.66 0.66 1.32 1 2 C0.34 1.67 -0.32 1.34 -1 1 C-0.67 0.67 -0.34 0.34 0 0 Z M-2 2 C-1.67 2.99 -1.34 3.98 -1 5 C-2.98 5.99 -2.98 5.99 -5 7 C-3.125 3.125 -3.125 3.125 -2 2 Z " fill="#029AFD" transform="translate(358,701)"/>
<path d="M0 0 C0.66 0.66 1.32 1.32 2 2 C-1.465 4.97 -1.465 4.97 -5 8 C-3.95206337 3.80825346 -3.08236365 2.78407039 0 0 Z " fill="#047DFA" transform="translate(589,803)"/>
<path d="M0 0 C2 1 2 1 2 1 Z " fill="#0195FF" transform="translate(417,379)"/>
<path d="" fill="#0398FE" transform="translate(0,0)"/>
<path d="" fill="#2A4962" transform="translate(0,0)"/>
<path d="" fill="#223F59" transform="translate(0,0)"/>
<path d="" fill="#264864" transform="translate(0,0)"/>
<path d="" fill="#254761" transform="translate(0,0)"/>
<path d="" fill="#326083" transform="translate(0,0)"/>
<path d="" fill="#2A4F70" transform="translate(0,0)"/>
<path d="" fill="#305168" transform="translate(0,0)"/>
<path d="" fill="#0B95F7" transform="translate(0,0)"/>
<path d="" fill="#0C96F5" transform="translate(0,0)"/>
<path d="" fill="#0795FB" transform="translate(0,0)"/>
<path d="" fill="#099AFC" transform="translate(0,0)"/>
<path d="" fill="#0497FE" transform="translate(0,0)"/>
<path d="" fill="#0C80F2" transform="translate(0,0)"/>
<path d="" fill="#049CFF" transform="translate(0,0)"/>
<path d="" fill="#0685FB" transform="translate(0,0)"/>
<path d="" fill="#0885FC" transform="translate(0,0)"/>
<path d="" fill="#2F6190" transform="translate(0,0)"/>
<path d="" fill="#0487FC" transform="translate(0,0)"/>
<path d="" fill="#049CFE" transform="translate(0,0)"/>
<path d="" fill="#0494FD" transform="translate(0,0)"/>
<path d="" fill="#0799FD" transform="translate(0,0)"/>
<path d="" fill="#0195FF" transform="translate(0,0)"/>
<path d="" fill="#0696FA" transform="translate(0,0)"/>
<path d="" fill="#0093FF" transform="translate(0,0)"/>
<path d="" fill="#0D82EC" transform="translate(0,0)"/>
<path d="" fill="#0F82F0" transform="translate(0,0)"/>
<path d="" fill="#0285FB" transform="translate(0,0)"/>
<path d="" fill="#039AFE" transform="translate(0,0)"/>
<path d="" fill="#058BFE" transform="translate(0,0)"/>
<path d="" fill="#028AFE" transform="translate(0,0)"/>
<path d="" fill="#028AFD" transform="translate(0,0)"/>
<path d="" fill="#018CFD" transform="translate(0,0)"/>
<path d="" fill="#008DFE" transform="translate(0,0)"/>
<path d="" fill="#0189FE" transform="translate(0,0)"/>
<path d="" fill="#028CFF" transform="translate(0,0)"/>
<path d="" fill="#0195FE" transform="translate(0,0)"/>
<path d="" fill="#038EFE" transform="translate(0,0)"/>
<path d="" fill="#028FFE" transform="translate(0,0)"/>
<path d="" fill="#0394FF" transform="translate(0,0)"/>
<path d="" fill="#0296FF" transform="translate(0,0)"/>
<path d="" fill="#0597FF" transform="translate(0,0)"/>
<path d="" fill="#0494FF" transform="translate(0,0)"/>
<path d="" fill="#0397FF" transform="translate(0,0)"/>
<path d="" fill="#0C9AFA" transform="translate(0,0)"/>
<path d="" fill="#0498FF" transform="translate(0,0)"/>
<path d="" fill="#0F90F3" transform="translate(0,0)"/>
<path d="" fill="#039BFD" transform="translate(0,0)"/>
<path d="" fill="#079CFE" transform="translate(0,0)"/>
<path d="" fill="#0A9CF9" transform="translate(0,0)"/>
<path d="" fill="#0985F8" transform="translate(0,0)"/>
<path d="" fill="#305B7F" transform="translate(0,0)"/>
<path d="" fill="#058DF9" transform="translate(0,0)"/>
<path d="" fill="#1A354A" transform="translate(0,0)"/>
</svg>
