<svg width="24" height="24" viewBox="0 0 24 24" fill="none" xmlns="http://www.w3.org/2000/svg">
    <defs>
        <linearGradient id="blueGradient" x1="0%" y1="0%" x2="100%" y2="100%">
            <stop offset="0%" style="stop-color:#60A5FA;stop-opacity:1" />
            <stop offset="100%" style="stop-color:#2563EB;stop-opacity:1" />
        </linearGradient>
    </defs>
  <!-- Book pages with white background -->
  <path d="M6.5 2H20V22H6.5C5.83696 22 5.20107 21.7366 4.73223 21.2678C4.26339 20.7989 4 20.163 4 19.5V4.5C4 3.83696 4.26339 3.20107 4.73223 2.73223C5.20107 2.26339 5.83696 2 6.5 2Z" fill="#FFFFFF" stroke="url(#blueGradient)" stroke-width="2" stroke-linecap="round" stroke-linejoin="round"/>
  <!-- Book binding/cover with blue gradient -->
  <path d="M6.5 2H7.5V22H6.5C5.83696 22 5.20107 21.7366 4.73223 21.2678C4.26339 20.7989 4 20.163 4 19.5V4.5C4 3.83696 4.26339 3.20107 4.73223 2.73223C5.20107 2.26339 5.83696 2 6.5 2Z" fill="url(#blueGradient)"/>
  <!-- Bookmark/ribbon -->
  <path d="M4 19.5C4 18.837 4.26339 18.2011 4.73223 17.7322C5.20107 17.2634 5.83696 17 6.5 17H20" stroke="url(#blueGradient)" stroke-width="2" stroke-linecap="round" stroke-linejoin="round"/>
  <!-- Text lines in blue -->
  <path d="M8 6H16M8 10H14" stroke="url(#blueGradient)" stroke-width="1.5" stroke-linecap="round"/>
</svg>


