<svg width="24" height="24" viewBox="0 0 24 24" fill="none" xmlns="http://www.w3.org/2000/svg">
  <path d="M23 4V10H17" stroke="#10B981" stroke-width="2" stroke-linecap="round" stroke-linejoin="round"/>
  <path d="M1 20V14H7" stroke="#10B981" stroke-width="2" stroke-linecap="round" stroke-linejoin="round"/>
  <path d="M3.51 9C4.01717 7.56679 4.87913 6.28583 6.01547 5.27626C7.1518 4.26669 8.52547 3.55995 10.0083 3.22425C11.4912 2.88854 13.0348 2.93433 14.4952 3.35682C15.9556 3.77931 17.2853 4.56479 18.36 5.64L23 10M1 14L5.64 18.36C6.71475 19.4352 8.04437 20.2207 9.50481 20.6432C10.9652 21.0657 12.5088 21.1115 13.9917 20.7758C15.4745 20.44 16.8482 19.7333 17.9845 18.7237C19.1209 17.7142 19.9828 16.4332 20.49 15" stroke="#10B981" stroke-width="2" stroke-linecap="round" stroke-linejoin="round"/>
</svg>

