<svg width="24" height="24" viewBox="0 0 24 24" fill="none" xmlns="http://www.w3.org/2000/svg">
  <path fill-rule="evenodd" clip-rule="evenodd" d="M12 2C6.477 2 2 6.477 2 12C2 16.42 4.865 20.17 8.839 21.49C9.339 21.58 9.52 21.27 9.52 21C9.52 20.77 9.511 20.14 9.507 19.31C6.726 19.91 6.139 17.77 6.139 17.77C5.685 16.61 5.029 16.3 5.029 16.3C4.121 15.68 5.098 15.69 5.098 15.69C6.101 15.76 6.629 16.73 6.629 16.73C7.521 18.28 8.97 17.84 9.539 17.58C9.631 16.93 9.889 16.49 10.175 16.24C7.955 16.0 5.62 15.15 5.62 11.23C5.62 10.13 6.01 9.23 6.649 8.53C6.546 8.28 6.203 7.29 6.747 5.91C6.747 5.91 7.586 5.64 9.497 6.92C10.294 6.7 11.147 6.59 12 6.58C12.853 6.59 13.706 6.7 14.503 6.92C16.414 5.64 17.253 5.91 17.253 5.91C17.797 7.29 17.454 8.28 17.351 8.53C17.99 9.23 18.38 10.13 18.38 11.23C18.38 15.16 16.04 15.99 13.813 16.24C14.172 16.55 14.493 17.16 14.493 18.09C14.493 19.43 14.48 20.51 14.48 21C14.48 21.27 14.66 21.58 15.169 21.49C19.135 20.17 22 16.42 22 12C22 6.477 17.523 2 12 2Z" fill="#64748B"/>
</svg>

