<svg width="24" height="24" viewBox="0 0 24 24" fill="none" xmlns="http://www.w3.org/2000/svg">
  <path d="M12 2C6.49 2 2 6.49 2 12C2 17.51 6.49 22 12 22C13.66 22 15 20.66 15 19C15 18.33 14.78 17.7 14.41 17.21C14.05 16.73 13.82 16.14 13.82 15.5C13.82 14.12 14.94 13 16.32 13H18C20.21 13 22 11.21 22 9C22 5.13 17.52 2 12 2Z" fill="#FDE68A" stroke="#F59E0B" stroke-width="2" stroke-linecap="round" stroke-linejoin="round"/>
  <circle cx="7" cy="10" r="1.5" fill="#EF4444"/>
  <circle cx="10.5" cy="7" r="1.5" fill="#8B5CF6"/>
  <circle cx="15" cy="7" r="1.5" fill="#3B82F6"/>
  <circle cx="18" cy="10" r="1.5" fill="#10B981"/>
</svg>

