<svg width="24" height="24" viewBox="0 0 24 24" fill="none" xmlns="http://www.w3.org/2000/svg">
  <rect x="9" y="2" width="2" height="6" fill="#60A5FA" rx="1"/>
  <rect x="13" y="2" width="2" height="6" fill="#60A5FA" rx="1"/>
  <path d="M7 8H17C17.5304 8 18.0391 8.21071 18.4142 8.58579C18.7893 8.96086 19 9.46957 19 10V14C19 15.0609 18.5786 16.0783 17.8284 16.8284C17.0783 17.5786 16.0609 18 15 18H13V22H11V18H9C7.93913 18 6.92172 17.5786 6.17157 16.8284C5.42143 16.0783 5 15.0609 5 14V10C5 9.46957 5.21071 8.96086 5.58579 8.58579C5.96086 8.21071 6.46957 8 7 8Z" fill="#93C5FD" stroke="#3B82F6" stroke-width="2" stroke-linecap="round" stroke-linejoin="round"/>
</svg>

