<svg width="24" height="24" viewBox="0 0 24 24" fill="none" xmlns="http://www.w3.org/2000/svg">
  <path d="M19 11V9C19 7.89543 18.1046 7 17 7H15" stroke="#A78BFA" stroke-width="2" stroke-linecap="round" stroke-linejoin="round"/>
  <path d="M15 7V5C15 3.89543 14.1046 3 13 3H11C9.89543 3 9 3.89543 9 5V7" stroke="#A78BFA" stroke-width="2" stroke-linecap="round" stroke-linejoin="round"/>
  <path d="M9 7H7C5.89543 7 5 7.89543 5 9V11" stroke="#A78BFA" stroke-width="2" stroke-linecap="round" stroke-linejoin="round"/>
  <path d="M5 13V15C5 16.1046 5.89543 17 7 17H9" stroke="#A78BFA" stroke-width="2" stroke-linecap="round" stroke-linejoin="round"/>
  <path d="M9 17V19C9 20.1046 9.89543 21 11 21H13C14.1046 21 15 20.1046 15 19V17" stroke="#A78BFA" stroke-width="2" stroke-linecap="round" stroke-linejoin="round"/>
  <path d="M15 17H17C18.1046 17 19 16.1046 19 15V13" stroke="#A78BFA" stroke-width="2" stroke-linecap="round" stroke-linejoin="round"/>
  <circle cx="12" cy="12" r="2" fill="#8B5CF6"/>
</svg>

