<svg viewBox="0 0 1440 120" fill="none" xmlns="http://www.w3.org/2000/svg">
    <defs>
        <linearGradient id="blueGradient" x1="0%" y1="0%" x2="100%" y2="100%">
            <stop offset="0%" style="stop-color:#60A5FA;stop-opacity:1" />
            <stop offset="100%" style="stop-color:#2563EB;stop-opacity:1" />
        </linearGradient>
    </defs>
  <path d="M0 0L60 10C120 20 240 40 360 46.7C480 53 600 47 720 43.3C840 40 960 40 1080 46.7C1200 53 1320 67 1380 73.3L1440 80V120H1380C1320 120 1200 120 1080 120C960 120 840 120 720 120C600 120 480 120 360 120C240 120 120 120 60 120H0V0Z" fill="url(#blueGradient)"/>
</svg>


