<svg width="24" height="24" viewBox="0 0 24 24" fill="none" xmlns="http://www.w3.org/2000/svg">
  <path d="M14.7 6.3C15.0968 6.69666 15.5812 6.99873 16.1144 7.18343C16.6476 7.36814 17.2159 7.43057 17.7769 7.36616C18.3379 7.30175 18.8779 7.11223 19.3559 6.81164C19.8339 6.51105 20.2377 6.10726 20.5378 5.62928C20.8378 5.1513 21.0272 4.61129 21.0915 4.05027C21.1558 3.48925 21.0933 2.92097 20.9085 2.38778C20.7236 1.85458 20.4214 1.37019 20.0247 0.973328C19.628 0.576463 19.1475 0.271924 18.62 0.0800004L15.87 2.83C15.5549 2.82987 15.2527 2.70444 15.0291 2.48083C14.8055 2.25722 14.6801 1.95499 14.68 1.64L17.43 -1.11C16.8968 -1.29286 16.3285 -1.35529 15.7675 -1.29088C15.2065 -1.22647 14.6665 -1.03695 14.1885 -0.736358C13.7105 -0.435769 13.3067 -0.0319768 13.0067 0.446001C12.7067 0.923978 12.5172 1.46399 12.4528 2.02501C12.3884 2.58603 12.4509 3.1543 12.6356 3.6875C12.8204 4.2207 13.1226 4.70509 13.52 5.102L3.00003 15.62C2.64248 15.9775 2.44336 16.4625 2.44336 16.9675C2.44336 17.4725 2.64248 17.9575 3.00003 18.315L5.68503 21C6.04252 21.3576 6.52754 21.5567 7.03253 21.5567C7.53752 21.5567 8.02254 21.3576 8.38003 21L18.9 10.48C19.2966 10.8775 19.781 11.1797 20.3142 11.3645C20.8474 11.5493 21.4157 11.6118 21.9767 11.5475C22.5377 11.4831 23.0777 11.2936 23.5557 10.993C24.0337 10.6924 24.4375 10.2886 24.7381 9.8106C25.0387 9.33262 25.2282 8.79261 25.2926 8.23159C25.357 7.67057 25.2946 7.10229 25.1099 6.5691C24.9252 6.0359 24.623 5.55151 24.2264 5.15465C23.8297 4.75778 23.3492 4.45516 22.822 4.26316L20.072 7.01316C19.757 7.01303 19.4547 6.88761 19.2311 6.66399C19.0075 6.44038 18.8821 6.13815 18.882 5.82316L21.632 3.07316C21.4389 2.54585 21.1335 2.06563 20.7363 1.66868C20.3391 1.27174 19.8587 0.966645 19.3314 0.773894C18.8041 0.581144 18.2419 0.505228 17.6809 0.550816C17.1199 0.596403 16.5763 0.762546 16.09 1.03744C15.6036 1.31233 15.1868 1.68919 14.8687 2.14122C14.5506 2.59326 14.339 3.10925 14.2488 3.65236C14.1586 4.19547 14.1921 4.75164 14.3469 5.27971C14.5017 5.80778 14.7742 6.29498 15.144 6.70616L13.85 8.00016L14.7 6.3Z" fill="#FCA5A5" stroke="#EF4444" stroke-width="1.5" stroke-linecap="round" stroke-linejoin="round"/>
</svg>

